<svg width="239" height="277" viewBox="0 0 239 277" fill="none" xmlns="http://www.w3.org/2000/svg">
<path d="M211.961 82.3042L216.234 78.0173C222.399 71.8428 223.525 62.8691 218.733 58.0783C213.941 53.2874 204.981 54.3992 198.823 60.5736L194.518 64.8846C177.393 50.9544 156.721 42.0952 134.834 39.3069V31.6368H140.952C149.666 31.6368 156.798 24.6706 156.798 16.1607C156.798 7.65078 149.666 0.676514 140.952 0.676514H98.3678C89.6545 0.676514 82.5225 7.64278 82.5225 16.1607C82.5225 24.6786 89.6545 31.6368 98.3678 31.6368H104.486V39.3069C78.3437 42.6698 54.0563 54.6287 35.4342 73.3073C16.8122 91.9858 4.90919 116.327 1.59291 142.512C-1.72337 168.696 3.73472 195.243 17.1108 217.985C30.4869 240.728 51.024 258.38 75.4998 268.172C99.9756 277.964 127.005 279.342 152.347 272.089C177.689 264.836 199.91 249.363 215.522 228.098C231.135 206.832 239.256 180.978 238.611 154.592C237.967 128.205 228.593 102.78 211.961 82.3042ZM119.66 245.624C102.257 245.624 85.2454 240.456 70.7756 230.773C56.3059 221.091 45.0283 207.329 38.3689 191.228C31.7095 175.126 29.9675 157.409 33.3632 140.316C36.7589 123.224 45.1397 107.523 57.4459 95.2006C69.752 82.878 85.4307 74.4865 102.499 71.0876C119.568 67.6886 137.26 69.4346 153.337 76.105C169.415 82.7754 183.156 94.0704 192.823 108.562C202.491 123.053 207.65 140.09 207.648 157.518C207.646 180.885 198.375 203.296 181.874 219.818C165.373 236.341 142.995 245.624 119.66 245.624Z" fill="#DEDEDE"/>
<circle cx="119.647" cy="157.677" r="93" stroke="#D22856" stroke-width="16"/>
<path d="M116.553 191.677H68.647V181.598L85.8501 164.208C90.9439 158.989 94.272 155.38 95.8345 153.38C97.397 151.348 98.522 149.473 99.2095 147.755C99.897 146.036 100.241 144.255 100.241 142.411C100.241 139.661 99.4751 137.614 97.9439 136.27C96.4439 134.927 94.4283 134.255 91.897 134.255C89.2408 134.255 86.6626 134.864 84.1626 136.083C81.6626 137.302 79.0533 139.036 76.3345 141.286L68.4595 131.958C71.8345 129.083 74.6314 127.052 76.8501 125.864C79.0689 124.677 81.4908 123.77 84.1158 123.145C86.7408 122.489 89.6783 122.161 92.9283 122.161C97.2095 122.161 100.991 122.942 104.272 124.505C107.553 126.067 110.1 128.255 111.913 131.067C113.725 133.88 114.631 137.098 114.631 140.723C114.631 143.88 114.069 146.848 112.944 149.63C111.85 152.38 110.131 155.208 107.788 158.114C105.475 161.02 101.381 165.161 95.5064 170.536L86.6939 178.833V179.489H116.553V191.677ZM172.944 177.473H164.694V191.677H150.538V177.473H121.288V167.395L151.335 123.145H164.694V166.223H172.944V177.473ZM150.538 166.223V154.598C150.538 152.661 150.616 149.848 150.772 146.161C150.928 142.473 151.053 140.333 151.147 139.739H150.772C149.616 142.302 148.225 144.802 146.6 147.239L134.038 166.223H150.538Z" fill="#D22856"/>
</svg>
